USFL
nRows=267
nColumns=2
inDegrees=yes
endheader
time	soleus_r	
4.35758	 35.274156	
4.39085	 35.336894	
4.42411	 35.445381	
4.45738	 35.119757	
4.49064	 35.054336	
4.5239	 35.102181	
4.55717	 34.888124	
4.59043	 34.683943	
4.6237	 34.703531	
4.65696	 34.455049	
4.69022	 34.295666	
4.72349	 34.187646	
4.75675	 33.784986	
4.79002	 33.657585	
4.82328	 33.255377	
4.85654	 33.088474	
4.88981	 33.076740	
4.92307	 33.157778	
4.95634	 32.872596	
4.9896	 32.700455	
5.02286	 32.530687	
5.05613	 32.361463	
5.08939	 32.221491	
5.12266	 31.846626	
5.15592	 31.711422	
5.18918	 31.544763	
5.22245	 31.537039	
5.25571	 31.473629	
5.28898	 31.296302	
5.32224	 31.252545	
5.3555	 31.252332	
5.38877	 31.208320	
5.42203	 31.217510	
5.4553	 31.129901	
5.48856	 31.092070	
5.52182	 31.041826	
5.55509	 30.970268	
5.58835	 30.952834	
5.62162	 30.905607	
5.65488	 31.034819	
5.68814	 31.056840	
5.72141	 30.999687	
5.75467	 30.909913	
5.78794	 30.873932	
5.8212	 30.951955	
5.85446	 30.769683	
5.88773	 30.845567	
5.92099	 30.972629	
5.95426	 31.021452	
5.98752	 31.017919	
6.02078	 30.970808	
6.05405	 30.852913	
6.08731	 30.903692	
6.12058	 30.966169	
6.15384	 30.999727	
6.1871	 30.943032	
6.22037	 30.824786	
6.25363	 30.827451	
6.2869	 30.762687	
6.32016	 30.734747	
6.35342	 30.737821	
6.38669	 30.663795	
6.41995	 30.635392	
6.45322	 30.559524	
6.48648	 30.562080	
6.51974	 30.538728	
6.55301	 30.548970	
6.58627	 30.510857	
6.61954	 30.521590	
6.6528	 30.488251	
6.68606	 30.437967	
6.71933	 30.449638	
6.75259	 30.465917	
6.78586	 30.511453	
6.81912	 30.578926	
6.85238	 30.568783	
6.88565	 30.510474	
6.91891	 30.583670	
6.95218	 30.626948	
6.98544	 30.604762	
7.0187	 30.527331	
7.05197	 30.462247	
7.08523	 30.536322	
7.1185	 30.414783	
7.15176	 30.157357	
7.18502	 30.004673	
7.21829	 29.969479	
7.25155	 29.926291	
7.28482	 29.930985	
7.31808	 29.881702	
7.35134	 29.837948	
7.38461	 29.890723	
7.41787	 29.830407	
7.45114	 29.816284	
7.4844	 29.647031	
7.51766	 29.521440	
7.55093	 29.530124	
7.58419	 29.387670	
7.61746	 29.325339	
7.65072	 29.339878	
7.68398	 28.086249	
7.71725	 28.016259	
7.75051	 27.961218	
7.78378	 27.940689	
7.81704	 27.952193	
7.8503	 27.905999	
7.88357	 27.873165	
7.91683	 27.881930	
7.9501	 27.880032	
7.98336	 27.851115	
8.01662	 27.837925	
8.04989	 27.872882	
8.08315	 26.960603	
8.11642	 26.915531	
8.14968	 26.877770	
8.18294	 26.898721	
8.21621	 26.804794	
8.24947	 26.817050	
8.28274	 26.834350	
8.316	 26.778362	
8.34926	 26.756811	
8.38253	 26.742303	
8.41579	 26.737620	
8.44906	 26.689913	
8.48232	 26.665516	
8.51558	 26.669702	
8.54885	 26.628219	
8.58211	 26.529104	
8.61538	 26.490948	
8.64864	 26.524052	
8.6819	 26.498253	
8.71517	 26.443527	
8.74843	 26.537067	
8.7817	 26.495652	
8.81496	 26.403565	
8.84822	 26.199201	
8.88149	 26.021953	
8.91475	 26.065412	
8.94802	 26.053824	
8.98128	 25.902275	
9.01454	 26.003990	
9.04781	 26.146126	
9.08107	 26.068902	
9.11434	 26.093913	
9.1476	 26.064976	
9.18086	 25.939938	
9.21413	 25.984477	
9.24739	 25.896673	
9.28066	 25.849149	
9.31392	 25.736335	
9.34718	 25.641381	
9.38045	 25.668374	
9.41371	 25.671628	
9.44698	 25.603091	
9.48024	 25.621317	
9.5135	 25.607739	
9.54677	 25.586555	
9.58003	 25.598875	
9.6133	 25.565091	
9.64656	 25.711960	
9.67982	 25.782618	
9.71309	 25.836029	
9.74635	 25.935470	
9.77962	 25.940711	
9.81288	 25.970519	
9.84614	 25.916033	
9.87941	 25.857488	
9.91267	 25.826496	
9.94594	 25.647323	
9.9792	 25.629845	
10.0125	 25.602324	
10.0457	 25.562853	
10.079	 25.622621	
10.1123	 25.653913	
10.1455	 25.639318	
10.1788	 25.678985	
10.212	 25.695858	
10.2453	 25.665575	
10.2786	 25.652097	
10.3118	 25.596008	
10.3451	 25.584682	
10.3784	 25.603147	
10.4116	 25.664344	
10.4449	 25.679568	
10.4782	 25.642202	
10.5114	 25.530316	
10.5447	 25.480368	
10.578	 25.449654	
10.6112	 25.429287	
10.6445	 25.483652	
10.6777	 25.837830	
10.711	 25.853600	
10.7443	 25.893124	
10.7775	 25.886099	
10.8108	 25.867825	
10.8441	 25.925687	
10.8773	 25.932700	
10.9106	 25.927776	
10.9439	 26.034281	
10.9771	 25.997159	
11.0104	 25.982926	
11.0436	 26.156869	
11.0769	 26.161103	
11.1102	 26.196620	
11.1434	 26.085388	
11.1767	 26.062192	
11.21	 26.068784	
11.2432	 25.995661	
11.2765	 25.914103	
11.3098	 25.914879	
11.343	 25.875081	
11.3763	 25.829251	
11.4096	 25.726015	
11.4428	 25.810541	
11.4761	 25.926439	
11.5093	 25.855908	
11.5426	 25.807752	
11.5759	 25.718240	
11.6091	 25.591426	
11.6424	 25.537139	
11.6757	 25.563782	
11.7089	 25.482551	
11.7422	 25.387438	
11.7755	 25.100042	
11.8087	 25.047986	
11.842	 24.967932	
11.8752	 24.853744	
11.9085	 31.762886	
11.9418	 31.712812	
11.975	 31.650865	
12.0083	 31.637208	
12.0416	 31.628847	
12.0748	 31.570483	
12.1081	 31.531255	
12.1414	 31.493482	
12.1746	 31.448570	
12.2079	 31.459885	
12.2412	 31.489646	
12.2744	 31.434148	
12.3077	 31.516529	
12.3409	 31.500824	
12.3742	 31.532765	
12.4075	 31.513337	
12.4407	 31.532386	
12.474	 31.582852	
12.5073	 31.573824	
12.5405	 31.523141	
12.5738	 31.584133	
12.6071	 31.616479	
12.6403	 31.577410	
12.6736	 31.560059	
12.7068	 31.627583	
12.7401	 31.718095	
12.7734	 31.792495	
12.8066	 31.786174	
12.8399	 31.845600	
12.8732	 34.419316	
12.9064	 34.446496	
12.9397	 34.459034	
12.973	 34.493750	
13.0062	 34.434755	
13.0395	 34.454407	
13.0728	 34.445298	
13.106	 34.407150	
13.1393	 34.439168	
13.1725	 34.407272	
13.2058	 34.425211	
